grf
version=1
nRows=17
nColumns=37
inDegrees=no
endheader
time	ground_force_1_vx	ground_force_1_vy	ground_force_1_vz	ground_force_1_px	ground_force_1_py	ground_force_1_pz	ground_moment_1_mx	ground_moment_1_my	ground_moment_1_mz	ground_force_2_vx	ground_force_2_vy	ground_force_2_vz	ground_force_2_px	ground_force_2_py	ground_force_2_pz	ground_moment_2_mx	ground_moment_2_my	ground_moment_2_mz	ground_force_3_vx	ground_force_3_vy	ground_force_3_vz	ground_force_3_px	ground_force_3_py	ground_force_3_pz	ground_moment_3_mx	ground_moment_3_my	ground_moment_3_mz	ground_force_4_vx	ground_force_4_vy	ground_force_4_vz	ground_force_4_px	ground_force_4_py	ground_force_4_pz	ground_moment_4_mx	ground_moment_4_my	ground_moment_4_mz
      0.00000000	      0.00000000	     -0.00000000	      0.00000000	      0.00000000	      0.00000000	      0.00000000	      0.00000000	      0.00000000	      0.00000000	      4.34355354	     -1.69051719	   -725.07836914	   -278.43072998	  -1016.79388475	      0.00000000	      0.00000000	     -0.00000000	   -171.07003735	    -11.11930684	     -3.15190743	    -37.23934174	   -171.46933278	   -906.28613580	      0.00000000	      0.00000000	     -0.00000000	    -67.88752859	    -34.73099378	     16.03911131	     76.27787018	    603.52929672	   -562.11360683	      0.00000000	      0.00000000	     -0.00000000	    -85.48102057
      0.01000000	      0.00000000	     -0.00000000	      0.00000000	      0.00000000	      0.00000000	      0.00000000	      0.00000000	      0.00000000	      0.00000000	      4.66655731	     -2.61555386	   -725.67547607	   -279.47623523	  -1016.67861789	      0.00000000	      0.00000000	     -0.00000000	    -37.12342383	    -11.23862581	     -3.26502511	    -37.82854843	   -177.24401730	   -901.21583982	      0.00000000	      0.00000000	     -0.00000000	   -153.68878276	    -34.68239833	     16.28099173	     76.15661621	    602.20642402	   -563.94972424	      0.00000000	     -0.00000000	     -0.00000000	   -185.15976994
      0.02000000	      0.00000000	     -0.00000000	      0.00000000	      0.00000000	      0.00000000	      0.00000000	      0.00000000	      0.00000000	      0.00000000	      4.72141552	     -3.74347687	   -727.18414307	   -280.29722587	  -1015.95019374	      0.00000000	      0.00000000	      0.00000000	   -213.23476664	    -11.59051923	     -3.21003884	    -37.84086609	   -173.71537178	   -899.19222101	      0.00000000	      0.00000000	     -0.00000000	    -82.57458068	    -34.86878825	     16.28450699	     74.38743591	    608.60361127	   -564.64554993	      0.00000000	      0.00000000	     -0.00000000	   -126.02870726
      0.03000000	      0.00000000	     -0.00000000	      0.00000000	      0.00000000	      0.00000000	      0.00000000	      0.00000000	      0.00000000	      0.00000000	      5.96643162	     -4.90217209	   -729.54736328	   -281.92184259	  -1015.85837684	      0.00000000	      0.00000000	     -0.00000000	   -176.68223725	    -11.73722392	     -3.41402380	    -37.14353561	   -174.58502835	   -901.97431956	      0.00000000	      0.00000000	     -0.00000000	    -29.85621201	    -34.95101405	     16.25710793	     75.45471191	    606.50006857	   -563.17427429	      0.00000000	      0.00000000	     -0.00000000	   -234.63403683
      0.04000000	      0.00000000	     -0.00000000	      0.00000000	      0.00000000	      0.00000000	      0.00000000	      0.00000000	      0.00000000	      0.00000000	      6.77247334	     -5.85916185	   -732.35760498	   -283.13594285	  -1015.63403830	      0.00000000	      0.00000000	     -0.00000000	   -205.97352140	    -11.85306291	     -3.17957965	    -37.23830032	   -173.08701241	   -893.45971262	      0.00000000	      0.00000000	     -0.00000000	   -133.83976224	    -34.79934552	     16.05004424	     76.17258453	    604.30722776	   -562.81344968	      0.00000000	      0.00000000	     -0.00000000	    -70.82266672
      0.05000000	      0.00000000	     -0.00000000	      0.00000000	      0.00000000	      0.00000000	      0.00000000	      0.00000000	      0.00000000	      0.00000000	      8.17631912	     -6.47549868	   -733.67761230	   -284.25647361	  -1016.07055653	      0.00000000	      0.00000000	     -0.00000000	   -234.68755829	    -11.59759265	     -3.41028541	    -36.56834793	   -169.89236352	   -898.72108328	      0.00000000	      0.00000000	     -0.00000000	     -9.00006126	    -35.00949334	     16.43303414	     77.05366516	    599.02837678	   -561.55126240	      0.00000000	      0.00000000	      0.00000000	    -30.41168720
      0.06000000	      0.00000000	     -0.00000000	      0.00000000	      0.00000000	      0.00000000	      0.00000000	      0.00000000	      0.00000000	      0.00000000	      8.91689014	     -6.60396338	   -732.74163818	   -286.41663694	  -1015.22121942	      0.00000000	      0.00000000	     -0.00000000	   -549.77989436	    -11.73682433	     -3.35238521	    -35.73490524	   -176.21095250	   -906.50701047	      0.00000000	      0.00000000	      0.00000000	    163.67969383	    -34.96932461	     16.10007401	     76.26191711	    602.26303412	   -561.05327654	      0.00000000	      0.00000000	     -0.00000000	    -35.21123664
      0.07000000	      0.00000000	     -0.00000000	      0.00000000	      0.00000000	      0.00000000	      0.00000000	      0.00000000	      0.00000000	      0.00000000	     10.54938698	     -6.35078478	   -733.55468750	   -288.04928377	  -1015.96835827	      0.00000000	      0.00000000	     -0.00000000	   -567.47708792	    -11.62111309	     -3.00692647	    -35.94684219	   -174.08574670	   -894.90514299	      0.00000000	      0.00000000	     -0.00000000	   -107.96272440	    -34.86206676	     16.16299743	     76.40267181	    599.59842373	   -560.28613382	      0.00000000	      0.00000000	     -0.00000000	   -155.33366960
      0.08000000	      0.00000000	     -0.00000000	      0.00000000	      0.00000000	      0.00000000	      0.00000000	      0.00000000	      0.00000000	      0.00000000	     11.80702209	     -6.47980261	   -732.15979004	   -289.71648021	  -1015.34079662	      0.00000000	      0.00000000	     -0.00000000	   -791.64178866	    -11.77175548	     -3.02959816	    -35.17538834	   -170.14475817	   -905.99419421	      0.00000000	     -0.00000000	     -0.00000000	     74.53381875	    -34.82596063	     16.43284721	     75.43586731	    605.98061359	   -563.07187338	      0.00000000	      0.00000000	     -0.00000000	   -268.34587493
      0.09000000	      0.00000000	     -0.00000000	      0.00000000	      0.00000000	      0.00000000	      0.00000000	      0.00000000	      0.00000000	      0.00000000	     13.72897816	     -6.80047655	   -732.60046387	   -291.32763528	  -1015.54551765	      0.00000000	      0.00000000	     -0.00000000	   -843.55211216	    -11.68760516	     -2.94551914	    -35.38648224	   -173.26347339	   -896.90199347	      0.00000000	      0.00000000	     -0.00000000	   -167.36536667	    -34.86233761	     16.07795066	     75.66236877	    606.62628221	   -566.22872518	      0.00000000	      0.00000000	      0.00000000	    -56.91243643
      0.10000000	      0.00000000	     -0.00000000	      0.00000000	      0.00000000	      0.00000000	      0.00000000	      0.00000000	      0.00000000	      0.00000000	     15.13441753	     -6.53296757	   -734.26110840	   -292.92086356	  -1015.50547999	      0.00000000	      0.00000000	     -0.00000000	   -928.11308504	    -12.00705553	     -2.80446424	    -33.90381622	   -174.08744515	   -909.08100513	      0.00000000	      0.00000000	      0.00000000	    113.18628846	    -34.85724499	     16.07806892	     75.57850647	    604.06662696	   -565.78325661	      0.00000000	      0.00000000	     -0.00000000	    -40.59044868
      0.11000000	      0.00000000	     -0.00000000	      0.00000000	      0.00000000	      0.00000000	      0.00000000	      0.00000000	      0.00000000	      0.00000000	     16.37315178	     -5.85627794	   -735.65368652	   -294.17506320	  -1015.30380878	      0.00000000	      0.00000000	     -0.00000000	  -1105.93403239	    -11.94003131	     -2.91935936	    -34.56600952	   -178.07157216	   -902.96557223	      0.00000000	      0.00000000	     -0.00000000	   -118.33736908	    -35.18879179	     15.90366862	     74.62877655	    609.25168331	   -565.26409763	      0.00000000	      0.00000000	     -0.00000000	    -81.11394493
      0.12000000	      0.00000000	     -0.00000000	      0.00000000	      0.00000000	      0.00000000	      0.00000000	      0.00000000	      0.00000000	      0.00000000	     16.80307198	     -5.31108379	   -734.80096436	   -295.69467344	  -1014.70391509	      0.00000000	      0.00000000	      0.00000000	  -1270.29548003	    -12.09589224	     -3.24175657	    -34.79226303	   -169.66838491	   -900.32600305	      0.00000000	      0.00000000	      0.00000000	     63.58254897	    -34.88880016	     16.22640152	     76.60993958	    601.30310427	   -563.17143337	      0.00000000	      0.00000000	     -0.00000000	    -91.00864657
      0.13000000	      0.00000000	     -0.00000000	      0.00000000	      0.00000000	      0.00000000	      0.00000000	      0.00000000	      0.00000000	      0.00000000	     17.22853279	     -5.69345093	   -736.13031006	   -296.30734716	  -1015.03371065	      0.00000000	      0.00000000	     -0.00000000	  -1300.49150912	    -12.44051485	     -3.26278459	    -34.09373093	   -164.25079458	   -906.02959788	      0.00000000	      0.00000000	      0.00000000	    234.72541099	    -35.07348493	     15.93622133	     75.90757751	    605.08178915	   -563.17089334	      0.00000000	      0.00000000	     -0.00000000	   -100.47264969
      0.14000000	      0.00000000	     -0.00000000	      0.00000000	      0.00000000	      0.00000000	      0.00000000	      0.00000000	      0.00000000	      0.00000000	     17.45930862	     -5.45153618	   -736.50537109	   -297.55443981	  -1015.25582171	      0.00000000	      0.00000000	      0.00000000	  -1385.57966179	    -12.29407721	     -3.36156356	    -34.11454773	   -167.30751132	   -908.42064270	      0.00000000	      0.00000000	      0.00000000	     71.48723121	    -34.67806865	     16.22051161	     76.60888672	    601.79897037	   -562.60559018	      0.00000000	      0.00000000	     -0.00000000	   -149.08729430
      0.15000000	      0.00000000	     -0.00000000	      0.00000000	      0.00000000	      0.00000000	      0.00000000	      0.00000000	      0.00000000	      0.00000000	     18.09802055	     -5.05462360	   -736.48248291	   -297.90834846	  -1014.88614191	      0.00000000	      0.00000000	     -0.00000000	  -1221.68881254	    -12.03879098	     -3.15933408	    -34.23866653	   -170.17052489	   -900.53247715	      0.00000000	      0.00000000	     -0.00000000	   -205.77637536	    -34.94638682	     16.25244828	     75.88230896	    603.20939707	   -563.94391252	      0.00000000	      0.00000000	      0.00000000	    -24.91099619
      0.16000000	      0.00000000	     -0.00000000	      0.00000000	      0.00000000	      0.00000000	      0.00000000	      0.00000000	      0.00000000	      0.00000000	     18.17920303	     -5.13186455	   -735.21868896	   -298.71807049	  -1014.49859067	      0.00000000	      0.00000000	     -0.00000000	  -1360.31994441	    -12.43961265	     -2.97726642	    -35.26431274	   -182.44015562	   -884.20289187	      0.00000000	      0.00000000	     -0.00000000	   -288.70213986	    -34.70988324	     16.08515471	     77.45994568	    595.75873091	   -560.48963984	      0.00000000	      0.00000000	     -0.00000000	   -166.27809696
